<?xml version="1.0" encoding="utf-8"?>
<svg version="1.1" viewBox="0 0 200 200" xmlns="http://www.w3.org/2000/svg" xmlns:cc="http://creativecommons.org/ns#" xmlns:dc="http://purl.org/dc/elements/1.1/" xmlns:rdf="http://www.w3.org/1999/02/22-rdf-syntax-ns#" xmlns:svg="http://www.w3.org/2000/svg" xmlns:xlink="http://www.w3.org/1999/xlink">
  <title>Animated Rubik Cube 3D</title>
  <metadata>
    <rdf:RDF>
      <cc:Work rdf:About="">
        <dc:format>image/svg+xml</dc:format>
        <dc:title>Animated Rotating 3D object</dc:title>
        <dc:creator>
          <cc:Agent>
            <dc:title>Jarda</dc:title>
          </cc:Agent>
        </dc:creator>
        <cc:license rdf:resource="http://creativecommons.org/licenses/by-sa/4.0/"/>
        <dc:subject>
          <rdf:Bag>
            <rdf:li>3D</rdf:li>
            <rdf:li>animated</rdf:li>
            <rdf:li>cube</rdf:li>
            <rdf:li>object</rdf:li>
            <rdf:li>rotating</rdf:li>
            <rdf:li>rubik</rdf:li>
            <rdf:li>volumetric</rdf:li>
          </rdf:Bag>
        </dc:subject>
        <dc:description>Animated Rotating 3D object</dc:description>
      </cc:Work>
    </rdf:RDF>
  </metadata>
  <defs id="animation_styles">
    <style type="text/css">
      @keyframes rotate360right {
        from { transform: rotate(0deg); }
        to   { transform: rotate(360deg); }
      }
      @-moz-keyframes rotate360right {
        from { -moz-transform: rotate(0deg); }
        to   { -moz-transform: rotate(360deg); }
      }
      @-webkit-keyframes rotate360right {
        from { -webkit-transform: rotate(0deg); }
        to   { -webkit-transform: rotate(360deg); }
      }
      @keyframes rotate360left {
        from { transform: rotate(360deg); }
        to   { transform: rotate(0deg); }
      }
      @-moz-keyframes rotate360left {
        from { -moz-transform: rotate(360deg); }
        to   { -moz-transform: rotate(0deg); }
      }
      @-webkit-keyframes rotate360left {
        from { -webkit-transform: rotate(360deg); }
        to   { -webkit-transform: rotate(0deg); }
      }
      @keyframes rotateleftright {
        0% { transform: rotate(0deg); }
        50% { transform: rotate(450deg); }
        100% { transform: rotate(0deg); }
      }
      @-moz-keyframes rotateleftright {
        0% { -moz-transform: rotate(0deg); }
        50% { -moz-transform: rotate(450deg); }
        100% { -moz-transform: rotate(0deg); }
      }
      @-webkit-keyframes rotateleftright {
        0% { -webkit-transform: rotate(0deg); }
        50% { -webkit-transform: rotate(450deg); }
        100% { -webkit-transform: rotate(0deg); }
      }

      .animateRow1 {
         animation: rotate360right 10s linear infinite;
        -moz-animation: rotate360right 10s linear infinite;
        -webkit-animation: rotate360right 10s linear infinite;
      }

      .animateRow2 {
         animation: rotate360left 20s linear infinite;
        -moz-animation: rotate360left 20s linear infinite;
        -webkit-animation: rotate360left 20s linear infinite;
      }

      .animateRow3 {
         animation: rotate360left 5s linear infinite;
        -moz-animation: rotate360left 5s linear infinite;
        -webkit-animation: rotate360left 5s linear infinite;
      }

      .animateRoll {
         animation: rotateleftright 30s ease infinite;
         transform-origin: 50% 50%;
        -moz-animation: rotateleftright 30s ease infinite;
        -moz-transform-origin: 50% 50%;
        -webkit-animation: rotateleftright 30s ease infinite;
        -webkit-transform-origin: 50% 50%;
      }

      .object3D { stroke: #303030; fill: #000000; stroke-width: 0.5 }
    </style>
  </defs>
  <defs id="slices">
    <g id="slice1" transform="rotate (103)">
      <rect class="frame" height="27.873" rx="1.93649" ry="1.93649" width="27.873" x="-45.9365" y="-45.9365"/>
      <rect class="frame" height="27.873" rx="1.93649" ry="1.93649" width="27.873" x="-45.9365" y="-13.9365"/>
      <rect class="frame" height="27.873" rx="1.93649" ry="1.93649" width="27.873" x="-45.9365" y="18.0635"/>
      <rect class="frame" height="27.873" rx="1.93649" ry="1.93649" width="27.873" x="-13.9365" y="-45.9365"/>
      <rect class="frame" height="27.873" rx="1.93649" ry="1.93649" width="27.873" x="-13.9365" y="-13.9365"/>
      <rect class="frame" height="27.873" rx="1.93649" ry="1.93649" width="27.873" x="-13.9365" y="18.0635"/>
      <rect class="frame" height="27.873" rx="1.93649" ry="1.93649" width="27.873" x="18.0635" y="-45.9365"/>
      <rect class="frame" height="27.873" rx="1.93649" ry="1.93649" width="27.873" x="18.0635" y="-13.9365"/>
      <rect class="frame" height="27.873" rx="1.93649" ry="1.93649" width="27.873" x="18.0635" y="18.0635"/>
      <rect fill="white" height="24" stroke="none" width="24" x="-44" y="-44"/>
      <rect fill="white" height="24" stroke="none" width="24" x="-44" y="-12"/>
      <rect fill="white" height="24" stroke="none" width="24" x="-44" y="20"/>
      <rect fill="white" height="24" stroke="none" width="24" x="-12" y="-44"/>
      <rect fill="white" height="24" stroke="none" width="24" x="-12" y="-12"/>
      <rect fill="white" height="24" stroke="none" width="24" x="-12" y="20"/>
      <rect fill="white" height="24" stroke="none" width="24" x="20" y="-44"/>
      <rect fill="white" height="24" stroke="none" width="24" x="20" y="-12"/>
      <rect fill="white" height="24" stroke="none" width="24" x="20" y="20"/>
    </g>
    <g id="slice2" transform="rotate (103)">
      <rect class="frame" height="30.245" rx="3.1225" ry="3.1225" width="30.245" x="-47.1225" y="-47.1225"/>
      <rect class="frame" height="30.245" rx="3.1225" ry="3.1225" width="30.245" x="-47.1225" y="-15.1225"/>
      <rect class="frame" height="30.245" rx="3.1225" ry="3.1225" width="30.245" x="-47.1225" y="16.8775"/>
      <rect class="frame" height="30.245" rx="3.1225" ry="3.1225" width="30.245" x="-15.1225" y="-47.1225"/>
      <rect class="frame" height="30.245" rx="3.1225" ry="3.1225" width="30.245" x="-15.1225" y="-15.1225"/>
      <rect class="frame" height="30.245" rx="3.1225" ry="3.1225" width="30.245" x="-15.1225" y="16.8775"/>
      <rect class="frame" height="30.245" rx="3.1225" ry="3.1225" width="30.245" x="16.8775" y="-47.1225"/>
      <rect class="frame" height="30.245" rx="3.1225" ry="3.1225" width="30.245" x="16.8775" y="-15.1225"/>
      <rect class="frame" height="30.245" rx="3.1225" ry="3.1225" width="30.245" x="16.8775" y="16.8775"/>
    </g>
    <g id="slice3" transform="rotate (103)">
      <rect class="frame" height="31.4162" rx="3.7081" ry="3.7081" width="31.4162" x="-47.7081" y="-47.7081"/>
      <rect class="frame" height="31.4162" rx="3.7081" ry="3.7081" width="31.4162" x="-47.7081" y="-15.7081"/>
      <rect class="frame" height="31.4162" rx="3.7081" ry="3.7081" width="31.4162" x="-47.7081" y="16.2919"/>
      <rect class="frame" height="31.4162" rx="3.7081" ry="3.7081" width="31.4162" x="-15.7081" y="-47.7081"/>
      <rect class="frame" height="31.4162" rx="3.7081" ry="3.7081" width="31.4162" x="-15.7081" y="-15.7081"/>
      <rect class="frame" height="31.4162" rx="3.7081" ry="3.7081" width="31.4162" x="-15.7081" y="16.2919"/>
      <rect class="frame" height="31.4162" rx="3.7081" ry="3.7081" width="31.4162" x="16.2919" y="-47.7081"/>
      <rect class="frame" height="31.4162" rx="3.7081" ry="3.7081" width="31.4162" x="16.2919" y="-15.7081"/>
      <rect class="frame" height="31.4162" rx="3.7081" ry="3.7081" width="31.4162" x="16.2919" y="16.2919"/>
    </g>
    <g id="slice4" transform="rotate (103)">
      <path class="frame" d=" M 20 47.9686 L 44 47.9686 c 2.80624 0 3.96863 -2.80624 3.96863 -3.96863 L 47.9686 20 c 0 -2.80624 -2.80624 -3.96863 -3.96863 -3.96863 L 44 15.9686 c 2.80624 0 3.96863 -2.80624 3.96863 -3.96863 L 47.9686 -12 c 0 -2.80624 -2.80624 -3.96863 -3.96863 -3.96863 L 44 -16.0314 c 2.80624 0 3.96863 -2.80624 3.96863 -3.96863 L 47.9686 -44 c 0 -2.80624 -2.80624 -3.96863 -3.96863 -3.96863 L 20 -47.9686 c -2.80624 0 -3.96863 2.80624 -3.96863 3.96863 L 15.9686 -44 c 0 -2.80624 -2.80624 -3.96863 -3.96863 -3.96863 L -12 -47.9686 c -2.80624 0 -3.96863 2.80624 -3.96863 3.96863 L -16.0314 -44 c 0 -2.80624 -2.80624 -3.96863 -3.96863 -3.96863 L -44 -47.9686 c -2.80624 0 -3.96863 2.80624 -3.96863 3.96863 L -47.9686 -20 c 0 2.80624 2.80624 3.96863 3.96863 3.96863 L -44 -15.9686 c -2.80624 0 -3.96863 2.80624 -3.96863 3.96863 L -47.9686 12 c 0 2.80624 2.80624 3.96863 3.96863 3.96863 L -44 16.0314 c -2.80624 0 -3.96863 2.80624 -3.96863 3.96863 L -47.9686 44 c 0 2.80624 2.80624 3.96863 3.96863 3.96863 L -20 47.9686 c 2.80624 0 3.96863 -2.80624 3.96863 -3.96863 L -15.9686 44 c 0 2.80624 2.80624 3.96863 3.96863 3.96863 L 12 47.9686 c 2.80624 0 3.96863 -2.80624 3.96863 -3.96863 L 16.0314 44 c 0 2.80624 2.80624 3.96863 3.96863 3.96863 z"/>
    </g>
    <g id="slice5" transform="rotate (103)">
      <path class="frame" d=" M 44 44 L 44 48 c 2.82843 0 4 -2.82843 4 -4 L 44 44 z M 44 20 L 48 20 c 0 -2.82843 -2.82843 -4 -4 -4 L 44 20 z M 44 12 L 44 16 c 2.82843 0 4 -2.82843 4 -4 L 44 12 z M 44 -12 L 48 -12 c 0 -2.82843 -2.82843 -4 -4 -4 L 44 -12 z M 44 -20 L 44 -16 c 2.82843 0 4 -2.82843 4 -4 L 44 -20 z M 44 -44 L 48 -44 c 0 -2.82843 -2.82843 -4 -4 -4 L 44 -44 z M 20 -44 L 20 -48 c -2.82843 0 -4 2.82843 -4 4 L 20 -44 z M 12 -44 L 16 -44 c 0 -2.82843 -2.82843 -4 -4 -4 L 12 -44 z M -12 -44 L -12 -48 c -2.82843 0 -4 2.82843 -4 4 L -12 -44 z M -20 -44 L -16 -44 c 0 -2.82843 -2.82843 -4 -4 -4 L -20 -44 z M -44 -44 L -44 -48 c -2.82843 0 -4 2.82843 -4 4 L -44 -44 z M -44 -20 L -48 -20 c 0 2.82843 2.82843 4 4 4 L -44 -20 z M -44 -12 L -44 -16 c -2.82843 0 -4 2.82843 -4 4 L -44 -12 z M -44 12 L -48 12 c 0 2.82843 2.82843 4 4 4 L -44 12 z M -44 20 L -44 16 c -2.82843 0 -4 2.82843 -4 4 L -44 20 z M -44 44 L -48 44 c 0 2.82843 2.82843 4 4 4 L -44 44 z M -20 44 L -20 48 c 2.82843 0 4 -2.82843 4 -4 L -20 44 z M -12 44 L -16 44 c 0 2.82843 2.82843 4 4 4 L -12 44 z M 12 44 L 12 48 c 2.82843 0 4 -2.82843 4 -4 L 12 44 z M 20 44 L 16 44 c 0 2.82843 2.82843 4 4 4 L 20 44 z"/>
      <rect fill="red" fill-opacity="1" height="4" stroke="none" width="24" x="20" y="44"/>
      <rect fill="red" fill-opacity="1" height="4" stroke="none" width="24" x="-12" y="44"/>
      <rect fill="red" fill-opacity="1" height="4" stroke="none" width="24" x="-44" y="44"/>
      <rect fill="orange" fill-opacity="1" height="4" stroke="none" width="24" x="20" y="-48"/>
      <rect fill="orange" fill-opacity="1" height="4" stroke="none" width="24" x="-12" y="-48"/>
      <rect fill="orange" fill-opacity="1" height="4" stroke="none" width="24" x="-44" y="-48"/>
      <rect fill="green" fill-opacity="1" height="24" stroke="none" width="4" x="44" y="20"/>
      <rect fill="green" fill-opacity="1" height="24" stroke="none" width="4" x="44" y="-12"/>
      <rect fill="green" fill-opacity="1" height="24" stroke="none" width="4" x="44" y="-44"/>
      <rect fill="blue" fill-opacity="1" height="24" stroke="none" width="4" x="-48" y="20"/>
      <rect fill="blue" fill-opacity="1" height="24" stroke="none" width="4" x="-48" y="-12"/>
      <rect fill="blue" fill-opacity="1" height="24" stroke="none" width="4" x="-48" y="-44"/>
    </g>
    <g id="slice6" transform="rotate (103)">
      <rect class="frame" height="27.873" rx="1.93649" ry="1.93649" width="27.873" x="-45.9365" y="-45.9365"/>
      <rect class="frame" height="27.873" rx="1.93649" ry="1.93649" width="27.873" x="-45.9365" y="-13.9365"/>
      <rect class="frame" height="27.873" rx="1.93649" ry="1.93649" width="27.873" x="-45.9365" y="18.0635"/>
      <rect class="frame" height="27.873" rx="1.93649" ry="1.93649" width="27.873" x="-13.9365" y="-45.9365"/>
      <rect class="frame" height="27.873" rx="1.93649" ry="1.93649" width="27.873" x="-13.9365" y="-13.9365"/>
      <rect class="frame" height="27.873" rx="1.93649" ry="1.93649" width="27.873" x="-13.9365" y="18.0635"/>
      <rect class="frame" height="27.873" rx="1.93649" ry="1.93649" width="27.873" x="18.0635" y="-45.9365"/>
      <rect class="frame" height="27.873" rx="1.93649" ry="1.93649" width="27.873" x="18.0635" y="-13.9365"/>
      <rect class="frame" height="27.873" rx="1.93649" ry="1.93649" width="27.873" x="18.0635" y="18.0635"/>
    </g>
    <g id="slice7" transform="rotate (76)">
      <rect class="frame" height="27.873" rx="1.93649" ry="1.93649" width="27.873" x="-45.9365" y="-45.9365"/>
      <rect class="frame" height="27.873" rx="1.93649" ry="1.93649" width="27.873" x="-45.9365" y="-13.9365"/>
      <rect class="frame" height="27.873" rx="1.93649" ry="1.93649" width="27.873" x="-45.9365" y="18.0635"/>
      <rect class="frame" height="27.873" rx="1.93649" ry="1.93649" width="27.873" x="-13.9365" y="-45.9365"/>
      <rect class="frame" height="27.873" rx="1.93649" ry="1.93649" width="27.873" x="-13.9365" y="-13.9365"/>
      <rect class="frame" height="27.873" rx="1.93649" ry="1.93649" width="27.873" x="-13.9365" y="18.0635"/>
      <rect class="frame" height="27.873" rx="1.93649" ry="1.93649" width="27.873" x="18.0635" y="-45.9365"/>
      <rect class="frame" height="27.873" rx="1.93649" ry="1.93649" width="27.873" x="18.0635" y="-13.9365"/>
      <rect class="frame" height="27.873" rx="1.93649" ry="1.93649" width="27.873" x="18.0635" y="18.0635"/>
    </g>
    <g id="slice8" transform="rotate (76)">
      <rect class="frame" height="30.245" rx="3.1225" ry="3.1225" width="30.245" x="-47.1225" y="-47.1225"/>
      <rect class="frame" height="30.245" rx="3.1225" ry="3.1225" width="30.245" x="-47.1225" y="-15.1225"/>
      <rect class="frame" height="30.245" rx="3.1225" ry="3.1225" width="30.245" x="-47.1225" y="16.8775"/>
      <rect class="frame" height="30.245" rx="3.1225" ry="3.1225" width="30.245" x="-15.1225" y="-47.1225"/>
      <rect class="frame" height="30.245" rx="3.1225" ry="3.1225" width="30.245" x="-15.1225" y="-15.1225"/>
      <rect class="frame" height="30.245" rx="3.1225" ry="3.1225" width="30.245" x="-15.1225" y="16.8775"/>
      <rect class="frame" height="30.245" rx="3.1225" ry="3.1225" width="30.245" x="16.8775" y="-47.1225"/>
      <rect class="frame" height="30.245" rx="3.1225" ry="3.1225" width="30.245" x="16.8775" y="-15.1225"/>
      <rect class="frame" height="30.245" rx="3.1225" ry="3.1225" width="30.245" x="16.8775" y="16.8775"/>
    </g>
    <g id="slice9" transform="rotate (76)">
      <rect class="frame" height="31.4162" rx="3.7081" ry="3.7081" width="31.4162" x="-47.7081" y="-47.7081"/>
      <rect class="frame" height="31.4162" rx="3.7081" ry="3.7081" width="31.4162" x="-47.7081" y="-15.7081"/>
      <rect class="frame" height="31.4162" rx="3.7081" ry="3.7081" width="31.4162" x="-47.7081" y="16.2919"/>
      <rect class="frame" height="31.4162" rx="3.7081" ry="3.7081" width="31.4162" x="-15.7081" y="-47.7081"/>
      <rect class="frame" height="31.4162" rx="3.7081" ry="3.7081" width="31.4162" x="-15.7081" y="-15.7081"/>
      <rect class="frame" height="31.4162" rx="3.7081" ry="3.7081" width="31.4162" x="-15.7081" y="16.2919"/>
      <rect class="frame" height="31.4162" rx="3.7081" ry="3.7081" width="31.4162" x="16.2919" y="-47.7081"/>
      <rect class="frame" height="31.4162" rx="3.7081" ry="3.7081" width="31.4162" x="16.2919" y="-15.7081"/>
      <rect class="frame" height="31.4162" rx="3.7081" ry="3.7081" width="31.4162" x="16.2919" y="16.2919"/>
    </g>
    <g id="slice10" transform="rotate (76)">
      <path class="frame" d=" M 20 47.9686 L 44 47.9686 c 2.80624 0 3.96863 -2.80624 3.96863 -3.96863 L 47.9686 20 c 0 -2.80624 -2.80624 -3.96863 -3.96863 -3.96863 L 44 15.9686 c 2.80624 0 3.96863 -2.80624 3.96863 -3.96863 L 47.9686 -12 c 0 -2.80624 -2.80624 -3.96863 -3.96863 -3.96863 L 44 -16.0314 c 2.80624 0 3.96863 -2.80624 3.96863 -3.96863 L 47.9686 -44 c 0 -2.80624 -2.80624 -3.96863 -3.96863 -3.96863 L 20 -47.9686 c -2.80624 0 -3.96863 2.80624 -3.96863 3.96863 L 15.9686 -44 c 0 -2.80624 -2.80624 -3.96863 -3.96863 -3.96863 L -12 -47.9686 c -2.80624 0 -3.96863 2.80624 -3.96863 3.96863 L -16.0314 -44 c 0 -2.80624 -2.80624 -3.96863 -3.96863 -3.96863 L -44 -47.9686 c -2.80624 0 -3.96863 2.80624 -3.96863 3.96863 L -47.9686 -20 c 0 2.80624 2.80624 3.96863 3.96863 3.96863 L -44 -15.9686 c -2.80624 0 -3.96863 2.80624 -3.96863 3.96863 L -47.9686 12 c 0 2.80624 2.80624 3.96863 3.96863 3.96863 L -44 16.0314 c -2.80624 0 -3.96863 2.80624 -3.96863 3.96863 L -47.9686 44 c 0 2.80624 2.80624 3.96863 3.96863 3.96863 L -20 47.9686 c 2.80624 0 3.96863 -2.80624 3.96863 -3.96863 L -15.9686 44 c 0 2.80624 2.80624 3.96863 3.96863 3.96863 L 12 47.9686 c 2.80624 0 3.96863 -2.80624 3.96863 -3.96863 L 16.0314 44 c 0 2.80624 2.80624 3.96863 3.96863 3.96863 z"/>
    </g>
    <g id="slice11" transform="rotate (76)">
      <path class="frame" d=" M 44 44 L 44 48 c 2.82843 0 4 -2.82843 4 -4 L 44 44 z M 44 20 L 48 20 c 0 -2.82843 -2.82843 -4 -4 -4 L 44 20 z M 44 12 L 44 16 c 2.82843 0 4 -2.82843 4 -4 L 44 12 z M 44 -12 L 48 -12 c 0 -2.82843 -2.82843 -4 -4 -4 L 44 -12 z M 44 -20 L 44 -16 c 2.82843 0 4 -2.82843 4 -4 L 44 -20 z M 44 -44 L 48 -44 c 0 -2.82843 -2.82843 -4 -4 -4 L 44 -44 z M 20 -44 L 20 -48 c -2.82843 0 -4 2.82843 -4 4 L 20 -44 z M 12 -44 L 16 -44 c 0 -2.82843 -2.82843 -4 -4 -4 L 12 -44 z M -12 -44 L -12 -48 c -2.82843 0 -4 2.82843 -4 4 L -12 -44 z M -20 -44 L -16 -44 c 0 -2.82843 -2.82843 -4 -4 -4 L -20 -44 z M -44 -44 L -44 -48 c -2.82843 0 -4 2.82843 -4 4 L -44 -44 z M -44 -20 L -48 -20 c 0 2.82843 2.82843 4 4 4 L -44 -20 z M -44 -12 L -44 -16 c -2.82843 0 -4 2.82843 -4 4 L -44 -12 z M -44 12 L -48 12 c 0 2.82843 2.82843 4 4 4 L -44 12 z M -44 20 L -44 16 c -2.82843 0 -4 2.82843 -4 4 L -44 20 z M -44 44 L -48 44 c 0 2.82843 2.82843 4 4 4 L -44 44 z M -20 44 L -20 48 c 2.82843 0 4 -2.82843 4 -4 L -20 44 z M -12 44 L -16 44 c 0 2.82843 2.82843 4 4 4 L -12 44 z M 12 44 L 12 48 c 2.82843 0 4 -2.82843 4 -4 L 12 44 z M 20 44 L 16 44 c 0 2.82843 2.82843 4 4 4 L 20 44 z"/>
      <rect fill="red" fill-opacity="1" height="4" stroke="none" width="24" x="20" y="44"/>
      <rect fill="red" fill-opacity="1" height="4" stroke="none" width="24" x="-12" y="44"/>
      <rect fill="red" fill-opacity="1" height="4" stroke="none" width="24" x="-44" y="44"/>
      <rect fill="orange" fill-opacity="1" height="4" stroke="none" width="24" x="20" y="-48"/>
      <rect fill="orange" fill-opacity="1" height="4" stroke="none" width="24" x="-12" y="-48"/>
      <rect fill="orange" fill-opacity="1" height="4" stroke="none" width="24" x="-44" y="-48"/>
      <rect fill="green" fill-opacity="1" height="24" stroke="none" width="4" x="44" y="20"/>
      <rect fill="green" fill-opacity="1" height="24" stroke="none" width="4" x="44" y="-12"/>
      <rect fill="green" fill-opacity="1" height="24" stroke="none" width="4" x="44" y="-44"/>
      <rect fill="blue" fill-opacity="1" height="24" stroke="none" width="4" x="-48" y="20"/>
      <rect fill="blue" fill-opacity="1" height="24" stroke="none" width="4" x="-48" y="-12"/>
      <rect fill="blue" fill-opacity="1" height="24" stroke="none" width="4" x="-48" y="-44"/>
    </g>
    <g id="slice12" transform="rotate (49)">
      <rect class="frame" height="27.873" rx="1.93649" ry="1.93649" width="27.873" x="-45.9365" y="-45.9365"/>
      <rect class="frame" height="27.873" rx="1.93649" ry="1.93649" width="27.873" x="-45.9365" y="-13.9365"/>
      <rect class="frame" height="27.873" rx="1.93649" ry="1.93649" width="27.873" x="-45.9365" y="18.0635"/>
      <rect class="frame" height="27.873" rx="1.93649" ry="1.93649" width="27.873" x="-13.9365" y="-45.9365"/>
      <rect class="frame" height="27.873" rx="1.93649" ry="1.93649" width="27.873" x="-13.9365" y="-13.9365"/>
      <rect class="frame" height="27.873" rx="1.93649" ry="1.93649" width="27.873" x="-13.9365" y="18.0635"/>
      <rect class="frame" height="27.873" rx="1.93649" ry="1.93649" width="27.873" x="18.0635" y="-45.9365"/>
      <rect class="frame" height="27.873" rx="1.93649" ry="1.93649" width="27.873" x="18.0635" y="-13.9365"/>
      <rect class="frame" height="27.873" rx="1.93649" ry="1.93649" width="27.873" x="18.0635" y="18.0635"/>
    </g>
    <g id="slice13" transform="rotate (49)">
      <rect class="frame" height="30.245" rx="3.1225" ry="3.1225" width="30.245" x="-47.1225" y="-47.1225"/>
      <rect class="frame" height="30.245" rx="3.1225" ry="3.1225" width="30.245" x="-47.1225" y="-15.1225"/>
      <rect class="frame" height="30.245" rx="3.1225" ry="3.1225" width="30.245" x="-47.1225" y="16.8775"/>
      <rect class="frame" height="30.245" rx="3.1225" ry="3.1225" width="30.245" x="-15.1225" y="-47.1225"/>
      <rect class="frame" height="30.245" rx="3.1225" ry="3.1225" width="30.245" x="-15.1225" y="-15.1225"/>
      <rect class="frame" height="30.245" rx="3.1225" ry="3.1225" width="30.245" x="-15.1225" y="16.8775"/>
      <rect class="frame" height="30.245" rx="3.1225" ry="3.1225" width="30.245" x="16.8775" y="-47.1225"/>
      <rect class="frame" height="30.245" rx="3.1225" ry="3.1225" width="30.245" x="16.8775" y="-15.1225"/>
      <rect class="frame" height="30.245" rx="3.1225" ry="3.1225" width="30.245" x="16.8775" y="16.8775"/>
    </g>
    <g id="slice14" transform="rotate (49)">
      <rect class="frame" height="31.4162" rx="3.7081" ry="3.7081" width="31.4162" x="-47.7081" y="-47.7081"/>
      <rect class="frame" height="31.4162" rx="3.7081" ry="3.7081" width="31.4162" x="-47.7081" y="-15.7081"/>
      <rect class="frame" height="31.4162" rx="3.7081" ry="3.7081" width="31.4162" x="-47.7081" y="16.2919"/>
      <rect class="frame" height="31.4162" rx="3.7081" ry="3.7081" width="31.4162" x="-15.7081" y="-47.7081"/>
      <rect class="frame" height="31.4162" rx="3.7081" ry="3.7081" width="31.4162" x="-15.7081" y="-15.7081"/>
      <rect class="frame" height="31.4162" rx="3.7081" ry="3.7081" width="31.4162" x="-15.7081" y="16.2919"/>
      <rect class="frame" height="31.4162" rx="3.7081" ry="3.7081" width="31.4162" x="16.2919" y="-47.7081"/>
      <rect class="frame" height="31.4162" rx="3.7081" ry="3.7081" width="31.4162" x="16.2919" y="-15.7081"/>
      <rect class="frame" height="31.4162" rx="3.7081" ry="3.7081" width="31.4162" x="16.2919" y="16.2919"/>
    </g>
    <g id="slice15" transform="rotate (49)">
      <path class="frame" d=" M 20 47.9686 L 44 47.9686 c 2.80624 0 3.96863 -2.80624 3.96863 -3.96863 L 47.9686 20 c 0 -2.80624 -2.80624 -3.96863 -3.96863 -3.96863 L 44 15.9686 c 2.80624 0 3.96863 -2.80624 3.96863 -3.96863 L 47.9686 -12 c 0 -2.80624 -2.80624 -3.96863 -3.96863 -3.96863 L 44 -16.0314 c 2.80624 0 3.96863 -2.80624 3.96863 -3.96863 L 47.9686 -44 c 0 -2.80624 -2.80624 -3.96863 -3.96863 -3.96863 L 20 -47.9686 c -2.80624 0 -3.96863 2.80624 -3.96863 3.96863 L 15.9686 -44 c 0 -2.80624 -2.80624 -3.96863 -3.96863 -3.96863 L -12 -47.9686 c -2.80624 0 -3.96863 2.80624 -3.96863 3.96863 L -16.0314 -44 c 0 -2.80624 -2.80624 -3.96863 -3.96863 -3.96863 L -44 -47.9686 c -2.80624 0 -3.96863 2.80624 -3.96863 3.96863 L -47.9686 -20 c 0 2.80624 2.80624 3.96863 3.96863 3.96863 L -44 -15.9686 c -2.80624 0 -3.96863 2.80624 -3.96863 3.96863 L -47.9686 12 c 0 2.80624 2.80624 3.96863 3.96863 3.96863 L -44 16.0314 c -2.80624 0 -3.96863 2.80624 -3.96863 3.96863 L -47.9686 44 c 0 2.80624 2.80624 3.96863 3.96863 3.96863 L -20 47.9686 c 2.80624 0 3.96863 -2.80624 3.96863 -3.96863 L -15.9686 44 c 0 2.80624 2.80624 3.96863 3.96863 3.96863 L 12 47.9686 c 2.80624 0 3.96863 -2.80624 3.96863 -3.96863 L 16.0314 44 c 0 2.80624 2.80624 3.96863 3.96863 3.96863 z"/>
    </g>
    <g id="slice16" transform="rotate (49)">
      <path class="frame" d=" M 44 44 L 44 48 c 2.82843 0 4 -2.82843 4 -4 L 44 44 z M 44 20 L 48 20 c 0 -2.82843 -2.82843 -4 -4 -4 L 44 20 z M 44 12 L 44 16 c 2.82843 0 4 -2.82843 4 -4 L 44 12 z M 44 -12 L 48 -12 c 0 -2.82843 -2.82843 -4 -4 -4 L 44 -12 z M 44 -20 L 44 -16 c 2.82843 0 4 -2.82843 4 -4 L 44 -20 z M 44 -44 L 48 -44 c 0 -2.82843 -2.82843 -4 -4 -4 L 44 -44 z M 20 -44 L 20 -48 c -2.82843 0 -4 2.82843 -4 4 L 20 -44 z M 12 -44 L 16 -44 c 0 -2.82843 -2.82843 -4 -4 -4 L 12 -44 z M -12 -44 L -12 -48 c -2.82843 0 -4 2.82843 -4 4 L -12 -44 z M -20 -44 L -16 -44 c 0 -2.82843 -2.82843 -4 -4 -4 L -20 -44 z M -44 -44 L -44 -48 c -2.82843 0 -4 2.82843 -4 4 L -44 -44 z M -44 -20 L -48 -20 c 0 2.82843 2.82843 4 4 4 L -44 -20 z M -44 -12 L -44 -16 c -2.82843 0 -4 2.82843 -4 4 L -44 -12 z M -44 12 L -48 12 c 0 2.82843 2.82843 4 4 4 L -44 12 z M -44 20 L -44 16 c -2.82843 0 -4 2.82843 -4 4 L -44 20 z M -44 44 L -48 44 c 0 2.82843 2.82843 4 4 4 L -44 44 z M -20 44 L -20 48 c 2.82843 0 4 -2.82843 4 -4 L -20 44 z M -12 44 L -16 44 c 0 2.82843 2.82843 4 4 4 L -12 44 z M 12 44 L 12 48 c 2.82843 0 4 -2.82843 4 -4 L 12 44 z M 20 44 L 16 44 c 0 2.82843 2.82843 4 4 4 L 20 44 z"/>
      <rect fill="red" fill-opacity="1" height="4" stroke="none" width="24" x="20" y="44"/>
      <rect fill="red" fill-opacity="1" height="4" stroke="none" width="24" x="-12" y="44"/>
      <rect fill="red" fill-opacity="1" height="4" stroke="none" width="24" x="-44" y="44"/>
      <rect fill="orange" fill-opacity="1" height="4" stroke="none" width="24" x="20" y="-48"/>
      <rect fill="orange" fill-opacity="1" height="4" stroke="none" width="24" x="-12" y="-48"/>
      <rect fill="orange" fill-opacity="1" height="4" stroke="none" width="24" x="-44" y="-48"/>
      <rect fill="green" fill-opacity="1" height="24" stroke="none" width="4" x="44" y="20"/>
      <rect fill="green" fill-opacity="1" height="24" stroke="none" width="4" x="44" y="-12"/>
      <rect fill="green" fill-opacity="1" height="24" stroke="none" width="4" x="44" y="-44"/>
      <rect fill="blue" fill-opacity="1" height="24" stroke="none" width="4" x="-48" y="20"/>
      <rect fill="blue" fill-opacity="1" height="24" stroke="none" width="4" x="-48" y="-12"/>
      <rect fill="blue" fill-opacity="1" height="24" stroke="none" width="4" x="-48" y="-44"/>
    </g>
    <g id="slice17" transform="rotate (49)">
      <rect class="frame" height="27.873" rx="1.93649" ry="1.93649" width="27.873" x="-45.9365" y="-45.9365"/>
      <rect class="frame" height="27.873" rx="1.93649" ry="1.93649" width="27.873" x="-45.9365" y="-13.9365"/>
      <rect class="frame" height="27.873" rx="1.93649" ry="1.93649" width="27.873" x="-45.9365" y="18.0635"/>
      <rect class="frame" height="27.873" rx="1.93649" ry="1.93649" width="27.873" x="-13.9365" y="-45.9365"/>
      <rect class="frame" height="27.873" rx="1.93649" ry="1.93649" width="27.873" x="-13.9365" y="-13.9365"/>
      <rect class="frame" height="27.873" rx="1.93649" ry="1.93649" width="27.873" x="-13.9365" y="18.0635"/>
      <rect class="frame" height="27.873" rx="1.93649" ry="1.93649" width="27.873" x="18.0635" y="-45.9365"/>
      <rect class="frame" height="27.873" rx="1.93649" ry="1.93649" width="27.873" x="18.0635" y="-13.9365"/>
      <rect class="frame" height="27.873" rx="1.93649" ry="1.93649" width="27.873" x="18.0635" y="18.0635"/>
      <rect fill="yellow" height="24" stroke="none" width="24" x="-44" y="-44"/>
      <rect fill="yellow" height="24" stroke="none" width="24" x="-44" y="-12"/>
      <rect fill="yellow" height="24" stroke="none" width="24" x="-44" y="20"/>
      <rect fill="yellow" height="24" stroke="none" width="24" x="-12" y="-44"/>
      <rect fill="yellow" height="24" stroke="none" width="24" x="-12" y="-12"/>
      <rect fill="yellow" height="24" stroke="none" width="24" x="-12" y="20"/>
      <rect fill="yellow" height="24" stroke="none" width="24" x="20" y="-44"/>
      <rect fill="yellow" height="24" stroke="none" width="24" x="20" y="-12"/>
      <rect fill="yellow" height="24" stroke="none" width="24" x="20" y="20"/>
    </g>
  </defs>
  <g id="object3D" class="animateRoll">
    <g class="object3D" transform="translate (100 100) scale (1 0.5)">
      <g id="layer1" transform="translate (0 82.2724)">
        <use class="animateRow1" xlink:href="#slice1"/>
      </g>
      <g id="layer2" transform="translate (0 80.5404)">
        <use class="animateRow1" xlink:href="#slice2"/>
      </g>
      <g id="layer3" transform="translate (0 78.8083)">
        <use class="animateRow1" xlink:href="#slice3"/>
      </g>
      <g id="layer4" transform="translate (0 77.0763)">
        <use class="animateRow1" xlink:href="#slice4"/>
      </g>
      <g id="layer5" transform="translate (0 75.3442)">
        <use class="animateRow1" xlink:href="#slice5"/>
      </g>
      <g id="layer6" transform="translate (0 73.6122)">
        <use class="animateRow1" xlink:href="#slice5"/>
      </g>
      <g id="layer7" transform="translate (0 71.8801)">
        <use class="animateRow1" xlink:href="#slice5"/>
      </g>
      <g id="layer8" transform="translate (0 70.1481)">
        <use class="animateRow1" xlink:href="#slice5"/>
      </g>
      <g id="layer9" transform="translate (0 68.416)">
        <use class="animateRow1" xlink:href="#slice5"/>
      </g>
      <g id="layer10" transform="translate (0 66.684)">
        <use class="animateRow1" xlink:href="#slice5"/>
      </g>
      <g id="layer11" transform="translate (0 64.9519)">
        <use class="animateRow1" xlink:href="#slice5"/>
      </g>
      <g id="layer12" transform="translate (0 63.2199)">
        <use class="animateRow1" xlink:href="#slice5"/>
      </g>
      <g id="layer13" transform="translate (0 61.4878)">
        <use class="animateRow1" xlink:href="#slice5"/>
      </g>
      <g id="layer14" transform="translate (0 59.7558)">
        <use class="animateRow1" xlink:href="#slice5"/>
      </g>
      <g id="layer15" transform="translate (0 58.0237)">
        <use class="animateRow1" xlink:href="#slice5"/>
      </g>
      <g id="layer16" transform="translate (0 56.2917)">
        <use class="animateRow1" xlink:href="#slice5"/>
      </g>
      <g id="layer17" transform="translate (0 54.5596)">
        <use class="animateRow1" xlink:href="#slice5"/>
      </g>
      <g id="layer18" transform="translate (0 52.8275)">
        <use class="animateRow1" xlink:href="#slice5"/>
      </g>
      <g id="layer19" transform="translate (0 51.0955)">
        <use class="animateRow1" xlink:href="#slice5"/>
      </g>
      <g id="layer20" transform="translate (0 49.3634)">
        <use class="animateRow1" xlink:href="#slice5"/>
      </g>
      <g id="layer21" transform="translate (0 47.6314)">
        <use class="animateRow1" xlink:href="#slice5"/>
      </g>
      <g id="layer22" transform="translate (0 45.8993)">
        <use class="animateRow1" xlink:href="#slice5"/>
      </g>
      <g id="layer23" transform="translate (0 44.1673)">
        <use class="animateRow1" xlink:href="#slice5"/>
      </g>
      <g id="layer24" transform="translate (0 42.4352)">
        <use class="animateRow1" xlink:href="#slice5"/>
      </g>
      <g id="layer25" transform="translate (0 40.7032)">
        <use class="animateRow1" xlink:href="#slice5"/>
      </g>
      <g id="layer26" transform="translate (0 38.9711)">
        <use class="animateRow1" xlink:href="#slice5"/>
      </g>
      <g id="layer27" transform="translate (0 37.2391)">
        <use class="animateRow1" xlink:href="#slice5"/>
      </g>
      <g id="layer28" transform="translate (0 35.507)">
        <use class="animateRow1" xlink:href="#slice5"/>
      </g>
      <g id="layer29" transform="translate (0 33.775)">
        <use class="animateRow1" xlink:href="#slice4"/>
      </g>
      <g id="layer30" transform="translate (0 32.0429)">
        <use class="animateRow1" xlink:href="#slice3"/>
      </g>
      <g id="layer31" transform="translate (0 30.3109)">
        <use class="animateRow1" xlink:href="#slice2"/>
      </g>
      <g id="layer32" transform="translate (0 28.5788)">
        <use class="animateRow1" xlink:href="#slice6"/>
      </g>
      <g id="layer33" transform="translate (0 26.8468)">
        <use class="animateRow2" xlink:href="#slice7"/>
      </g>
      <g id="layer34" transform="translate (0 25.1147)">
        <use class="animateRow2" xlink:href="#slice8"/>
      </g>
      <g id="layer35" transform="translate (0 23.3827)">
        <use class="animateRow2" xlink:href="#slice9"/>
      </g>
      <g id="layer36" transform="translate (0 21.6506)">
        <use class="animateRow2" xlink:href="#slice10"/>
      </g>
      <g id="layer37" transform="translate (0 19.9186)">
        <use class="animateRow2" xlink:href="#slice11"/>
      </g>
      <g id="layer38" transform="translate (0 18.1865)">
        <use class="animateRow2" xlink:href="#slice11"/>
      </g>
      <g id="layer39" transform="translate (0 16.4545)">
        <use class="animateRow2" xlink:href="#slice11"/>
      </g>
      <g id="layer40" transform="translate (0 14.7224)">
        <use class="animateRow2" xlink:href="#slice11"/>
      </g>
      <g id="layer41" transform="translate (0 12.9904)">
        <use class="animateRow2" xlink:href="#slice11"/>
      </g>
      <g id="layer42" transform="translate (0 11.2583)">
        <use class="animateRow2" xlink:href="#slice11"/>
      </g>
      <g id="layer43" transform="translate (0 9.52628)">
        <use class="animateRow2" xlink:href="#slice11"/>
      </g>
      <g id="layer44" transform="translate (0 7.79423)">
        <use class="animateRow2" xlink:href="#slice11"/>
      </g>
      <g id="layer45" transform="translate (0 6.06218)">
        <use class="animateRow2" xlink:href="#slice11"/>
      </g>
      <g id="layer46" transform="translate (0 4.33013)">
        <use class="animateRow2" xlink:href="#slice11"/>
      </g>
      <g id="layer47" transform="translate (0 2.59808)">
        <use class="animateRow2" xlink:href="#slice11"/>
      </g>
      <g id="layer48" transform="translate (0 0.866025)">
        <use class="animateRow2" xlink:href="#slice11"/>
      </g>
      <g id="layer49" transform="translate (0 -0.866025)">
        <use class="animateRow2" xlink:href="#slice11"/>
      </g>
      <g id="layer50" transform="translate (0 -2.59808)">
        <use class="animateRow2" xlink:href="#slice11"/>
      </g>
      <g id="layer51" transform="translate (0 -4.33013)">
        <use class="animateRow2" xlink:href="#slice11"/>
      </g>
      <g id="layer52" transform="translate (0 -6.06218)">
        <use class="animateRow2" xlink:href="#slice11"/>
      </g>
      <g id="layer53" transform="translate (0 -7.79423)">
        <use class="animateRow2" xlink:href="#slice11"/>
      </g>
      <g id="layer54" transform="translate (0 -9.52628)">
        <use class="animateRow2" xlink:href="#slice11"/>
      </g>
      <g id="layer55" transform="translate (0 -11.2583)">
        <use class="animateRow2" xlink:href="#slice11"/>
      </g>
      <g id="layer56" transform="translate (0 -12.9904)">
        <use class="animateRow2" xlink:href="#slice11"/>
      </g>
      <g id="layer57" transform="translate (0 -14.7224)">
        <use class="animateRow2" xlink:href="#slice11"/>
      </g>
      <g id="layer58" transform="translate (0 -16.4545)">
        <use class="animateRow2" xlink:href="#slice11"/>
      </g>
      <g id="layer59" transform="translate (0 -18.1865)">
        <use class="animateRow2" xlink:href="#slice11"/>
      </g>
      <g id="layer60" transform="translate (0 -19.9186)">
        <use class="animateRow2" xlink:href="#slice11"/>
      </g>
      <g id="layer61" transform="translate (0 -21.6506)">
        <use class="animateRow2" xlink:href="#slice10"/>
      </g>
      <g id="layer62" transform="translate (0 -23.3827)">
        <use class="animateRow2" xlink:href="#slice9"/>
      </g>
      <g id="layer63" transform="translate (0 -25.1147)">
        <use class="animateRow2" xlink:href="#slice8"/>
      </g>
      <g id="layer64" transform="translate (0 -26.8468)">
        <use class="animateRow2" xlink:href="#slice7"/>
      </g>
      <g id="layer65" transform="translate (0 -28.5788)">
        <use class="animateRow3" xlink:href="#slice12"/>
      </g>
      <g id="layer66" transform="translate (0 -30.3109)">
        <use class="animateRow3" xlink:href="#slice13"/>
      </g>
      <g id="layer67" transform="translate (0 -32.0429)">
        <use class="animateRow3" xlink:href="#slice14"/>
      </g>
      <g id="layer68" transform="translate (0 -33.775)">
        <use class="animateRow3" xlink:href="#slice15"/>
      </g>
      <g id="layer69" transform="translate (0 -35.507)">
        <use class="animateRow3" xlink:href="#slice16"/>
      </g>
      <g id="layer70" transform="translate (0 -37.2391)">
        <use class="animateRow3" xlink:href="#slice16"/>
      </g>
      <g id="layer71" transform="translate (0 -38.9711)">
        <use class="animateRow3" xlink:href="#slice16"/>
      </g>
      <g id="layer72" transform="translate (0 -40.7032)">
        <use class="animateRow3" xlink:href="#slice16"/>
      </g>
      <g id="layer73" transform="translate (0 -42.4352)">
        <use class="animateRow3" xlink:href="#slice16"/>
      </g>
      <g id="layer74" transform="translate (0 -44.1673)">
        <use class="animateRow3" xlink:href="#slice16"/>
      </g>
      <g id="layer75" transform="translate (0 -45.8993)">
        <use class="animateRow3" xlink:href="#slice16"/>
      </g>
      <g id="layer76" transform="translate (0 -47.6314)">
        <use class="animateRow3" xlink:href="#slice16"/>
      </g>
      <g id="layer77" transform="translate (0 -49.3634)">
        <use class="animateRow3" xlink:href="#slice16"/>
      </g>
      <g id="layer78" transform="translate (0 -51.0955)">
        <use class="animateRow3" xlink:href="#slice16"/>
      </g>
      <g id="layer79" transform="translate (0 -52.8275)">
        <use class="animateRow3" xlink:href="#slice16"/>
      </g>
      <g id="layer80" transform="translate (0 -54.5596)">
        <use class="animateRow3" xlink:href="#slice16"/>
      </g>
      <g id="layer81" transform="translate (0 -56.2917)">
        <use class="animateRow3" xlink:href="#slice16"/>
      </g>
      <g id="layer82" transform="translate (0 -58.0237)">
        <use class="animateRow3" xlink:href="#slice16"/>
      </g>
      <g id="layer83" transform="translate (0 -59.7558)">
        <use class="animateRow3" xlink:href="#slice16"/>
      </g>
      <g id="layer84" transform="translate (0 -61.4878)">
        <use class="animateRow3" xlink:href="#slice16"/>
      </g>
      <g id="layer85" transform="translate (0 -63.2199)">
        <use class="animateRow3" xlink:href="#slice16"/>
      </g>
      <g id="layer86" transform="translate (0 -64.9519)">
        <use class="animateRow3" xlink:href="#slice16"/>
      </g>
      <g id="layer87" transform="translate (0 -66.684)">
        <use class="animateRow3" xlink:href="#slice16"/>
      </g>
      <g id="layer88" transform="translate (0 -68.416)">
        <use class="animateRow3" xlink:href="#slice16"/>
      </g>
      <g id="layer89" transform="translate (0 -70.1481)">
        <use class="animateRow3" xlink:href="#slice16"/>
      </g>
      <g id="layer90" transform="translate (0 -71.8801)">
        <use class="animateRow3" xlink:href="#slice16"/>
      </g>
      <g id="layer91" transform="translate (0 -73.6122)">
        <use class="animateRow3" xlink:href="#slice16"/>
      </g>
      <g id="layer92" transform="translate (0 -75.3442)">
        <use class="animateRow3" xlink:href="#slice16"/>
      </g>
      <g id="layer93" transform="translate (0 -77.0763)">
        <use class="animateRow3" xlink:href="#slice15"/>
      </g>
      <g id="layer94" transform="translate (0 -78.8083)">
        <use class="animateRow3" xlink:href="#slice14"/>
      </g>
      <g id="layer95" transform="translate (0 -80.5404)">
        <use class="animateRow3" xlink:href="#slice13"/>
      </g>
      <g id="layer96" transform="translate (0 -82.2724)">
        <use class="animateRow3" xlink:href="#slice17"/>
      </g>
    </g>
  </g>
</svg>
